<svg viewBox="0 0 99 114" fill="none" xmlns="http://www.w3.org/2000/svg">
    <path d="M66.0752 56.8963L98.741 38.0178V75.7751L66.0752 56.8963Z" fill="white" fill-opacity="0.7" />
    <path d="M66.0834 19.1419L98.7492 38.0206L66.0834 56.8994V19.1419Z" fill="white" fill-opacity="0.75" />
    <path d="M66.0836 19.1414V56.8988L33.4169 38.0199L66.0836 19.1414Z" fill="white" fill-opacity="0.8" />
    <path d="M66.1636 19.1101L33.4978 37.9887V0.231316L66.1636 19.1101Z" fill="white" fill-opacity="0.85" />
    <path d="M33.5125 38.0327V75.79L0.849243 56.9112L33.5125 38.0327Z" fill="white" fill-opacity="0.8" />
    <path d="M33.5125 0.363724V38.1211L0.849243 19.2424L33.5125 0.363724Z" fill="white" fill-opacity="0.9" />
    <path d="M33.5125 75.745V113.503L0.849243 94.6241L33.5125 75.745Z" fill="white" fill-opacity="0.7" />
    <path d="M66.0834 56.8988L98.7492 75.7776L66.0834 94.656V56.8988Z" fill="white" fill-opacity="0.65" />
    <path d="M0.851685 56.8988L33.5184 75.7776L0.851685 94.656V56.8988Z" fill="white" fill-opacity="0.75" />
    <path d="M0.851685 19.1716L33.5184 38.0504L0.851685 56.929V19.1716Z" fill="white" fill-opacity="0.85" />
    <path d="M66.0836 56.8976V94.6551L33.4169 75.7764L66.0836 56.8976Z" fill="white" fill-opacity="0.6" />
</svg>